<svg width="22" height="22" viewBox="0 0 22 22" fill="none" xmlns="http://www.w3.org/2000/svg">
<path d="M7.33333 6.41667V2.75M14.6667 6.41667V2.75M6.41667 10.0833H15.5833M4.58333 19.25H17.4167C17.9029 19.25 18.3692 19.0568 18.713 18.713C19.0568 18.3692 19.25 17.9029 19.25 17.4167V6.41667C19.25 5.93044 19.0568 5.46412 18.713 5.1203C18.3692 4.77649 17.9029 4.58333 17.4167 4.58333H4.58333C4.0971 4.58333 3.63079 4.77649 3.28697 5.1203C2.94315 5.46412 2.75 5.93044 2.75 6.41667V17.4167C2.75 17.9029 2.94315 18.3692 3.28697 18.713C3.63079 19.0568 4.0971 19.25 4.58333 19.25Z" stroke="#006AFF" stroke-width="2" stroke-linecap="round" stroke-linejoin="round"/>
</svg>
