<svg width="26" height="26" viewBox="0 0 26 26" fill="none" xmlns="http://www.w3.org/2000/svg">
<path d="M19.4993 13L21.666 13M19.4993 13C19.4993 12.4254 19.2711 11.8743 18.8647 11.468C18.4584 11.0616 17.9073 10.8334 17.3327 10.8334C16.758 10.8334 16.2069 11.0616 15.8006 11.468C15.3943 11.8743 15.166 12.4254 15.166 13M19.4993 13C19.4993 13.5747 19.2711 14.1258 18.8647 14.5321C18.4584 14.9384 17.9073 15.1667 17.3327 15.1667C16.758 15.1667 16.2069 14.9384 15.8006 14.5321C15.3943 14.1258 15.166 13.5747 15.166 13M15.166 13L4.33268 13M6.49935 6.50004C6.49935 7.07468 6.72762 7.62578 7.13395 8.0321C7.54028 8.43843 8.09138 8.66671 8.66602 8.66671C9.24065 8.66671 9.79175 8.43843 10.1981 8.0321C10.6044 7.62578 10.8327 7.07468 10.8327 6.50004M6.49935 6.50004C6.49935 5.9254 6.72762 5.3743 7.13395 4.96798C7.54028 4.56165 8.09138 4.33337 8.66602 4.33337C9.24065 4.33337 9.79175 4.56165 10.1981 4.96798C10.6044 5.3743 10.8327 5.9254 10.8327 6.50004M6.49935 6.50004L4.33268 6.50004M10.8327 6.50004L21.666 6.50004M6.49935 19.5C6.49935 20.0747 6.72762 20.6258 7.13395 21.0321C7.54028 21.4384 8.09138 21.6667 8.66602 21.6667C9.24065 21.6667 9.79175 21.4384 10.1981 21.0321C10.6044 20.6258 10.8327 20.0747 10.8327 19.5M6.49935 19.5C6.49935 18.9254 6.72762 18.3743 7.13395 17.968C7.54028 17.5616 8.09138 17.3334 8.66602 17.3334C9.24065 17.3334 9.79175 17.5616 10.1981 17.968C10.6044 18.3743 10.8327 18.9254 10.8327 19.5M6.49935 19.5L4.33268 19.5M10.8327 19.5L21.666 19.5" stroke="white" stroke-width="2" stroke-linecap="round" stroke-linejoin="round"/>
</svg>
