<svg width="22" height="22" viewBox="0 0 22 22" fill="none" xmlns="http://www.w3.org/2000/svg">
<path d="M5.16641 16.8337C4.40031 16.0676 3.79261 15.1581 3.378 14.1572C2.9634 13.1562 2.75 12.0834 2.75 11C2.75 9.91659 2.9634 8.84378 3.378 7.84284C3.79261 6.8419 4.40031 5.93242 5.16641 5.16634M16.8337 5.16634C17.5998 5.93242 18.2075 6.8419 18.6221 7.84284C19.0367 8.84378 19.2501 9.91659 19.2501 11C19.2501 12.0834 19.0367 13.1562 18.6221 14.1572C18.2075 15.1581 17.5998 16.0676 16.8337 16.8337M7.75874 14.2404C6.8995 13.3809 6.4168 12.2153 6.4168 11C6.4168 9.78467 6.8995 8.61909 7.75874 7.75959M14.2414 7.75959C15.1006 8.61909 15.5833 9.78467 15.5833 11C15.5833 12.2153 15.1006 13.3809 14.2414 14.2404M11.9167 11C11.9167 11.2431 11.8202 11.4763 11.6483 11.6482C11.4763 11.8201 11.2432 11.9167 11.0001 11.9167C10.757 11.9167 10.5238 11.8201 10.3519 11.6482C10.18 11.4763 10.0834 11.2431 10.0834 11C10.0834 10.7569 10.18 10.5237 10.3519 10.3518C10.5238 10.1799 10.757 10.0833 11.0001 10.0833C11.2432 10.0833 11.4763 10.1799 11.6483 10.3518C11.8202 10.5237 11.9167 10.7569 11.9167 11Z" stroke="#006AFF" stroke-width="2" stroke-linecap="round" stroke-linejoin="round"/>
</svg>
